<?xml version="1.0" encoding="UTF-8"?>
<svg id="Calque_2" data-name="Calque 2" xmlns="http://www.w3.org/2000/svg" viewBox="0 0 259.45 159.03">
  <defs>
    <style>
      .cls-1 {
        fill: #e94f24;
      }

      .cls-2 {
        fill: #fff;
      }

      .cls-3 {
        fill: #1d1d1b;
      }
    </style>
  </defs>
  <g id="Calque_1-2" data-name="Calque 1">
    <g>
      <path class="cls-3" d="m62.13,45.94c-6.54,0-11.73-2.09-15.58-6.26-3.85-4.17-5.78-9.74-5.78-16.71s1.98-12.49,5.94-16.68c3.96-4.19,9.25-6.29,15.87-6.29,5.16,0,9.47,1.43,12.94,4.29,3.46,2.86,5.56,6.68,6.29,11.45h-7.68c-.73-2.88-2.14-5.14-4.23-6.78-2.09-1.63-4.64-2.45-7.65-2.45-4.26,0-7.64,1.52-10.13,4.55-2.5,3.03-3.74,7-3.74,11.91s1.23,8.87,3.68,11.91c2.45,3.03,5.79,4.55,10,4.55,3.1,0,5.69-.82,7.78-2.45,2.09-1.63,3.49-3.89,4.23-6.78h7.68c-.73,4.78-2.87,8.59-6.42,11.45-3.55,2.86-7.95,4.29-13.2,4.29Z"/>
      <path class="cls-3" d="m114.98,41.3c-3.1,3.1-7.16,4.65-12.2,4.65s-9.1-1.55-12.2-4.65-4.65-7.18-4.65-12.26,1.55-9.11,4.65-12.23c3.1-3.12,7.16-4.68,12.2-4.68s9.1,1.56,12.2,4.68c3.1,3.12,4.65,7.2,4.65,12.23s-1.55,9.16-4.65,12.26Zm-19.23-4.36c1.76,2.04,4.11,3.07,7.03,3.07s5.28-1.02,7.07-3.07c1.78-2.04,2.68-4.68,2.68-7.9s-.89-5.86-2.68-7.9c-1.79-2.04-4.14-3.07-7.07-3.07s-5.27,1.02-7.03,3.07c-1.76,2.04-2.65,4.68-2.65,7.9s.88,5.86,2.65,7.9Z"/>
      <path class="cls-3" d="m150.34,17.1V.39h6.97v45.17h-6.07l-.84-4.97c-2.62,3.57-6.22,5.36-10.78,5.36s-8.36-1.52-11.26-4.55c-2.9-3.03-4.36-7.15-4.36-12.36s1.47-9.11,4.42-12.23c2.95-3.12,6.68-4.68,11.2-4.68s8.3,1.66,10.71,4.97Zm-16.52,19.91c1.76,2.04,4.09,3.07,6.97,3.07s5.2-1.01,6.97-3.03c1.76-2.02,2.65-4.65,2.65-7.87s-.88-5.99-2.65-8.03c-1.76-2.04-4.09-3.07-6.97-3.07s-5.21,1.02-6.97,3.07c-1.76,2.04-2.65,4.68-2.65,7.9s.88,5.93,2.65,7.97Z"/>
      <path class="cls-3" d="m179.83,45.94c-5.16,0-9.27-1.54-12.33-4.61-3.05-3.08-4.58-7.15-4.58-12.23s1.49-9.17,4.48-12.29c2.99-3.12,6.91-4.68,11.78-4.68s8.64,1.42,11.58,4.26c2.95,2.84,4.46,6.67,4.55,11.49,0,.86-.06,1.74-.19,2.65h-24.91v.45c.09,2.84.97,5.1,2.65,6.78,1.68,1.68,3.87,2.52,6.58,2.52,2.15,0,3.96-.51,5.42-1.52,1.46-1.01,2.43-2.44,2.9-4.29h6.97c-.6,3.36-2.24,6.11-4.9,8.26-2.67,2.15-6,3.23-10,3.23Zm-9.36-20.52h17.62c-.3-2.41-1.24-4.29-2.81-5.65-1.57-1.36-3.58-2.03-6.03-2.03-2.28,0-4.25.7-5.9,2.1-1.66,1.4-2.61,3.26-2.87,5.58Z"/>
    </g>
    <g>
      <path class="cls-3" d="m42.27,89.69h3.94v6.58h-4.39c-1.76,0-3.15-.25-4.16-.74-1.01-.49-1.95-1.3-2.81-2.42l-.19-.26c-3.61,2.54-7.85,3.81-12.71,3.81-6.45,0-11.72-2.16-15.81-6.49-4.09-4.32-6.13-9.82-6.13-16.49s2.04-12.16,6.13-16.49c4.09-4.32,9.36-6.49,15.81-6.49s11.72,2.16,15.81,6.49c4.09,4.32,6.13,9.82,6.13,16.49,0,5.85-1.57,10.78-4.71,14.78.82.82,1.85,1.23,3.1,1.23Zm-20.33.45c3.23,0,6.04-.92,8.45-2.77l-.97-1.29c-1.08-1.46-2.28-2.19-3.61-2.19h-4v-6.45h4.84c1.59,0,2.85.25,3.77.74.92.49,1.8,1.3,2.61,2.42l1.36,1.74c1.25-2.49,1.87-5.38,1.87-8.65,0-4.82-1.32-8.76-3.97-11.84-2.65-3.08-6.1-4.61-10.36-4.61s-7.71,1.54-10.36,4.61c-2.65,3.08-3.97,7.02-3.97,11.84s1.32,8.77,3.97,11.84c2.65,3.08,6.1,4.61,10.36,4.61Z"/>
      <path class="cls-3" d="m72.66,79.75v-16.52h6.97v33.04h-6.13l-.77-4.19c-2.5,3.06-5.89,4.58-10.2,4.58-3.87,0-7.01-1.18-9.42-3.55-2.41-2.37-3.61-6.19-3.61-11.49v-18.39h6.97v17.62c0,6.5,2.56,9.74,7.68,9.74,2.67,0,4.75-.96,6.26-2.87,1.51-1.91,2.26-4.57,2.26-7.97Z"/>
      <path class="cls-3" d="m102.15,96.65c-5.16,0-9.27-1.54-12.33-4.61-3.06-3.08-4.58-7.15-4.58-12.23s1.49-9.17,4.48-12.29c2.99-3.12,6.91-4.68,11.78-4.68s8.64,1.42,11.58,4.26c2.95,2.84,4.46,6.67,4.55,11.49,0,.86-.06,1.74-.19,2.65h-24.91v.45c.09,2.84.97,5.1,2.65,6.78,1.68,1.68,3.87,2.52,6.58,2.52,2.15,0,3.96-.51,5.42-1.52,1.46-1.01,2.43-2.44,2.9-4.29h6.97c-.6,3.36-2.24,6.11-4.9,8.26-2.67,2.15-6,3.23-10,3.23Zm-9.36-20.52h17.62c-.3-2.41-1.24-4.29-2.81-5.65-1.57-1.36-3.58-2.03-6.03-2.03-2.28,0-4.25.7-5.9,2.1-1.66,1.4-2.61,3.26-2.87,5.58Z"/>
      <path class="cls-3" d="m121.64,85.36h6.84c.13,1.76.92,3.18,2.39,4.26,1.46,1.08,3.42,1.61,5.87,1.61,2.15,0,3.88-.39,5.19-1.16,1.31-.77,1.97-1.83,1.97-3.16,0-.82-.15-1.49-.45-2.03-.3-.54-.85-.96-1.65-1.26-.8-.3-1.54-.52-2.23-.65-.69-.13-1.79-.28-3.29-.45-.22-.04-.39-.06-.52-.06-2.15-.26-3.94-.56-5.36-.9-1.42-.34-2.8-.85-4.13-1.52-1.33-.67-2.33-1.58-3-2.74-.67-1.16-1-2.56-1-4.19,0-3.1,1.26-5.59,3.77-7.49,2.52-1.89,5.78-2.82,9.78-2.77,4.13,0,7.5.93,10.1,2.77,2.6,1.85,4.01,4.43,4.23,7.74h-6.84c-.22-1.55-.99-2.8-2.32-3.74-1.33-.95-3.01-1.42-5.03-1.42s-3.72.39-4.97,1.16c-1.25.77-1.87,1.83-1.87,3.16,0,.52.07.96.23,1.32.15.37.42.69.81.97.39.28.76.51,1.13.68.37.17.91.32,1.65.45.73.13,1.36.23,1.87.29.52.06,1.27.16,2.26.29,1.72.22,3.17.44,4.36.68,1.18.24,2.41.59,3.68,1.06,1.27.47,2.28,1.04,3.03,1.71.75.67,1.38,1.54,1.87,2.61.49,1.08.74,2.32.74,3.74,0,3.1-1.31,5.59-3.94,7.49-2.62,1.89-5.98,2.84-10.07,2.84-4.47,0-8.09-1-10.84-3-2.75-2-4.17-4.76-4.26-8.29Z"/>
      <path class="cls-3" d="m158.55,87.3v-17.94h-5.74v-6.13h5.74v-9.23h7.03v9.23h8.07v6.13h-8.07v17.23c0,1.29.26,2.21.77,2.74.52.54,1.44.81,2.77.81h4.9v6.13h-6.45c-3.14,0-5.43-.73-6.87-2.19-1.44-1.46-2.16-3.72-2.16-6.78Z"/>
    </g>
    <g>
      <rect class="cls-1" x="40.57" y="91.12" width="219.07" height="62.37" rx="31.18" ry="31.18" transform="translate(-8.26 10.91) rotate(-4.05)"/>
      <g>
        <path class="cls-2" d="m94.19,133.01l.78-.06.24,3.34-2.02.14c-2.23.16-3.41-.73-3.55-2.68-1.23,2.18-3.15,3.37-5.78,3.55-2.04.14-3.7-.21-5-1.07-1.3-.86-2.01-2.12-2.12-3.78-.13-1.87.43-3.36,1.68-4.46,1.25-1.1,3.15-1.74,5.68-1.92l4.58-.32-.08-1.1c-.07-1.02-.48-1.79-1.22-2.32-.74-.53-1.74-.75-2.99-.66-1.11.08-2.02.39-2.72.92-.7.54-1.09,1.21-1.18,2.03l-3.77.27c.06-1.79.78-3.25,2.14-4.38,1.36-1.13,3.19-1.78,5.49-1.94,2.44-.17,4.36.26,5.75,1.31,1.39,1.04,2.17,2.63,2.32,4.76l.52,7.28c.03.45.15.75.35.9.2.15.5.21.91.19Zm-5.27-3.77l-.05-.64-4.76.34c-2.46.17-3.63,1.17-3.5,3,.06.78.4,1.39,1.04,1.82.64.43,1.48.61,2.52.54,1.59-.11,2.79-.63,3.62-1.54.83-.92,1.2-2.08,1.13-3.51Z"/>
        <path class="cls-2" d="m105.53,135.78c-2.75.19-5-.49-6.75-2.04-1.75-1.55-2.73-3.75-2.93-6.59-.2-2.82.47-5.14,2.02-6.96,1.55-1.82,3.7-2.83,6.44-3.03,2.3-.16,4.21.3,5.74,1.38,1.53,1.08,2.56,2.66,3.08,4.74l-4.01.28c-.34-1.07-.91-1.88-1.71-2.43s-1.78-.78-2.94-.7c-1.54.11-2.74.76-3.59,1.95-.86,1.19-1.22,2.69-1.09,4.49.13,1.78.7,3.19,1.71,4.23,1.01,1.05,2.29,1.52,3.83,1.41,1.16-.08,2.1-.46,2.81-1.13.71-.67,1.15-1.55,1.31-2.63l4.05-.29c-.21,2.11-1.02,3.81-2.42,5.12-1.41,1.3-3.26,2.03-5.56,2.2Z"/>
        <path class="cls-2" d="m133.3,130.24l.78-.06.24,3.34-2.02.14c-2.23.16-3.41-.73-3.55-2.68-1.23,2.18-3.15,3.36-5.78,3.55-2.04.14-3.7-.21-5-1.07-1.3-.86-2.01-2.12-2.12-3.78-.13-1.87.43-3.36,1.68-4.46,1.25-1.1,3.15-1.74,5.68-1.92l4.58-.32-.08-1.1c-.07-1.02-.48-1.79-1.22-2.32-.74-.53-1.74-.75-2.99-.66-1.11.08-2.02.39-2.72.92-.7.54-1.09,1.21-1.18,2.03l-3.77.27c.06-1.79.78-3.25,2.14-4.38,1.36-1.13,3.19-1.78,5.49-1.94,2.44-.17,4.36.26,5.75,1.31,1.39,1.04,2.17,2.63,2.32,4.76l.52,7.28c.03.45.15.75.35.9.2.15.5.21.91.19Zm-5.27-3.77l-.05-.64-4.76.34c-2.46.17-3.63,1.17-3.5,3,.06.78.4,1.39,1.04,1.82.64.43,1.48.61,2.52.54,1.59-.11,2.79-.63,3.62-1.54.83-.92,1.2-2.08,1.13-3.51Z"/>
        <path class="cls-2" d="m148.98,116.74l-.65-9.2,3.84-.27,1.76,24.87-3.34.24-.66-2.7c-1.31,2.07-3.21,3.19-5.72,3.37-2.53.18-4.66-.51-6.38-2.07-1.72-1.56-2.68-3.77-2.88-6.63-.2-2.77.46-5.07,1.96-6.9,1.5-1.83,3.49-2.84,5.98-3.01,2.61-.18,4.63.59,6.09,2.32Zm-8.32,11.6c1.05,1.06,2.37,1.53,3.96,1.42,1.59-.11,2.83-.76,3.72-1.94.89-1.18,1.28-2.66,1.15-4.44-.13-1.82-.72-3.26-1.77-4.32-1.05-1.06-2.37-1.53-3.96-1.42-1.59.11-2.83.77-3.72,1.96-.89,1.19-1.27,2.68-1.15,4.45.13,1.8.72,3.23,1.77,4.28Z"/>
        <path class="cls-2" d="m166.34,131.47c-2.84.2-5.16-.49-6.97-2.06-1.8-1.57-2.8-3.76-3-6.55-.2-2.79.46-5.11,1.99-6.94,1.52-1.83,3.62-2.84,6.3-3.03,2.63-.19,4.81.44,6.54,1.89,1.73,1.45,2.72,3.5,2.95,6.15.03.47.03.96,0,1.46l-13.71.97.02.25c.16,1.56.73,2.77,1.72,3.63.99.86,2.23,1.23,3.72,1.13,1.18-.08,2.16-.43,2.92-1.05.77-.61,1.24-1.44,1.43-2.48l3.84-.27c-.2,1.87-.99,3.45-2.38,4.74-1.38,1.29-3.18,2.01-5.38,2.17Zm-5.95-10.93l9.7-.69c-.26-1.31-.85-2.31-1.76-3-.92-.68-2.05-.98-3.4-.88-1.26.09-2.31.55-3.17,1.38-.86.83-1.31,1.9-1.36,3.18Z"/>
        <path class="cls-2" d="m197.56,110.55c2.04-.14,3.73.38,5.07,1.57,1.35,1.19,2.12,3.15,2.31,5.87l.74,10.48-3.84.27-.72-10.23c-.23-3.24-1.61-4.78-4.15-4.6-1.33.09-2.34.64-3.04,1.63-.7.99-1,2.3-.88,3.94l.7,9.84-3.87.27-.72-10.23c-.23-3.24-1.62-4.78-4.18-4.6-1.3.09-2.3.65-3.01,1.68-.7,1.03-.99,2.36-.88,3.99l.69,9.73-3.84.27-1.29-18.19,3.34-.24.59,2.35c1.18-1.8,2.9-2.79,5.14-2.97,2.7-.19,4.65.78,5.85,2.91,1.15-2.29,3.14-3.54,5.98-3.74Z"/>
        <path class="cls-2" d="m213.69,128.01l-8.36-17.79,4.09-.29,6.06,13.46,3.96-14.17,4.09-.29-6.75,21.61c-.5,1.65-1.03,2.81-1.58,3.47-.55.66-1.45,1.03-2.71,1.12l-4.12.29-.24-3.37,2.7-.19c.73-.05,1.24-.21,1.52-.46.28-.26.53-.78.76-1.55l.58-1.83Z"/>
      </g>
    </g>
  </g>
</svg>